<svg xmlns="http://www.w3.org/2000/svg" viewBox="0 0 500 500"><g id="freepik--background-complete--inject-74"><path d="M238.4,341.53H45.31a5.72,5.72,0,0,1-5.71-5.71V64.39a5.72,5.72,0,0,1,5.71-5.66H238.4a5.71,5.71,0,0,1,5.7,5.71h0V335.82A5.71,5.71,0,0,1,238.4,341.53ZM45.31,58.93a5.47,5.47,0,0,0-5.46,5.46V335.82a5.47,5.47,0,0,0,5.46,5.46H238.4a5.46,5.46,0,0,0,5.45-5.46V64.39a5.46,5.46,0,0,0-5.45-5.46Z" style="fill:#e6e6e6"></path><path d="M454.7,341.53H261.6a5.71,5.71,0,0,1-5.7-5.71V64.39a5.71,5.71,0,0,1,5.7-5.66H454.7a5.71,5.71,0,0,1,5.7,5.66V335.82A5.71,5.71,0,0,1,454.7,341.53ZM261.6,58.93a5.46,5.46,0,0,0-5.45,5.46V335.82a5.46,5.46,0,0,0,5.45,5.46H454.7a5.48,5.48,0,0,0,5.47-5.46V64.39a5.48,5.48,0,0,0-5.47-5.46Z" style="fill:#e6e6e6"></path><path d="M207.75,197.46,206.38,315c-4.84,39.11-74.17,70.16-74.17,70.16S62.87,354.14,58,315L56.59,197.46l74.1-24.39Z" style="fill:#f5f5f5"></path><path d="M198.08,204.9l-1.19,105.54c-4.22,34.11-64.69,61.19-64.69,61.19s-60.47-27.08-64.68-61.19L66.25,204.9l64.63-21.27Z" style="fill:#e0e0e0"></path><path d="M193.84,211.56l-1.12,96.89c-4,32-60.65,57.36-60.65,57.36s-56.69-25.39-60.64-57.36l-1.19-96.89,60.59-19.94Z" style="fill:none;stroke:#fff;stroke-linecap:round;stroke-linejoin:round;stroke-width:3px;stroke-dasharray:0,33"></path><rect x="306.94" y="157.79" width="133.38" height="234.04" style="fill:#f5f5f5"></rect><rect x="316.8" y="166.99" width="113.85" height="224.84" style="fill:#e0e0e0"></rect><path d="M320,392.83a1.43,1.43,0,0,1-.58-.12,1.39,1.39,0,0,1-.48-.32,1.33,1.33,0,0,1-.33-.49,1.56,1.56,0,0,1-.11-.57,1.5,1.5,0,0,1,1.79-1.47l.28.08.26.14a2.11,2.11,0,0,1,.23.19,1,1,0,0,1,.18.23,1.08,1.08,0,0,1,.14.26,1.31,1.31,0,0,1,.09.28,1.36,1.36,0,0,1,0,.29,1.39,1.39,0,0,1-.12.57,1.43,1.43,0,0,1-.32.49A1.52,1.52,0,0,1,320,392.83Z" style="fill:#fff"></path><path d="M318.48,354.49A1.5,1.5,0,0,1,320,353h0a1.5,1.5,0,0,1,1.5,1.5h0A1.5,1.5,0,0,1,320,356h0A1.5,1.5,0,0,1,318.48,354.49Zm0-36.83a1.5,1.5,0,0,1,1.5-1.5h0a1.5,1.5,0,0,1,1.5,1.5h0a1.5,1.5,0,0,1-1.5,1.5h0A1.5,1.5,0,0,1,318.48,317.66Zm0-36.84a1.5,1.5,0,0,1,1.5-1.5h0a1.5,1.5,0,0,1,1.5,1.5h0a1.5,1.5,0,0,1-1.5,1.5h0A1.5,1.5,0,0,1,318.48,280.82Zm0-36.84a1.5,1.5,0,0,1,1.5-1.5h0a1.5,1.5,0,0,1,1.5,1.5h0a1.5,1.5,0,0,1-1.5,1.5h0A1.5,1.5,0,0,1,318.48,244Zm0-36.83a1.5,1.5,0,0,1,1.5-1.5h0a1.5,1.5,0,0,1,1.5,1.5h0a1.5,1.5,0,0,1-1.5,1.5h0A1.5,1.5,0,0,1,318.48,207.15Z" style="fill:#fff"></path><path d="M320,171.81a1.48,1.48,0,0,1-1.06-.44,1.06,1.06,0,0,1-.19-.23,2,2,0,0,1-.14-.25,1,1,0,0,1-.08-.29,1.36,1.36,0,0,1,0-.29,1.52,1.52,0,0,1,.44-1.06,1.37,1.37,0,0,1,.22-.19,1.26,1.26,0,0,1,.26-.13,1.52,1.52,0,0,1,.28-.09,1.47,1.47,0,0,1,.59,0,1.52,1.52,0,0,1,.28.09,1.26,1.26,0,0,1,.26.13,2.11,2.11,0,0,1,.23.19,1.52,1.52,0,0,1,.44,1.06,1.36,1.36,0,0,1,0,.29,1.61,1.61,0,0,1-.09.29,1.23,1.23,0,0,1-.14.25,1,1,0,0,1-.18.23A1.52,1.52,0,0,1,320,171.81Z" style="fill:#fff"></path><path d="M389.88,170.31a1.5,1.5,0,0,1,1.5-1.5h0a1.5,1.5,0,0,1,1.5,1.5h0a1.5,1.5,0,0,1-1.5,1.5h0A1.5,1.5,0,0,1,389.88,170.31Zm-35.7,0a1.5,1.5,0,0,1,1.5-1.5h0a1.5,1.5,0,0,1,1.5,1.5h0a1.5,1.5,0,0,1-1.5,1.5h0A1.5,1.5,0,0,1,354.18,170.31Z" style="fill:#fff"></path><path d="M427.08,171.81a1.43,1.43,0,0,1-.29,0l-.28-.08-.26-.14a2.11,2.11,0,0,1-.23-.19,1.5,1.5,0,0,1-.44-1.06,1.52,1.52,0,0,1,.44-1.06,1.3,1.3,0,0,1,.23-.18.94.94,0,0,1,.26-.14,1.31,1.31,0,0,1,.28-.09,1.47,1.47,0,0,1,.59,0l.28.09a.89.89,0,0,1,.25.14,1,1,0,0,1,.23.18,1.52,1.52,0,0,1,.44,1.06,1.5,1.5,0,0,1-.44,1.06,1.45,1.45,0,0,1-.23.19,2,2,0,0,1-.25.14l-.28.08A1.53,1.53,0,0,1,427.08,171.81Z" style="fill:#fff"></path><path d="M425.58,354.49a1.5,1.5,0,0,1,1.5-1.5h0a1.5,1.5,0,0,1,1.5,1.5h0a1.5,1.5,0,0,1-1.5,1.5h0A1.5,1.5,0,0,1,425.58,354.49Zm0-36.83a1.5,1.5,0,0,1,1.5-1.5h0a1.5,1.5,0,0,1,1.5,1.5h0a1.5,1.5,0,0,1-1.5,1.5h0A1.5,1.5,0,0,1,425.58,317.66Zm0-36.84a1.5,1.5,0,0,1,1.5-1.5h0a1.5,1.5,0,0,1,1.5,1.5h0a1.5,1.5,0,0,1-1.5,1.5h0A1.5,1.5,0,0,1,425.58,280.82Zm0-36.84a1.5,1.5,0,0,1,1.5-1.5h0a1.5,1.5,0,0,1,1.5,1.5h0a1.5,1.5,0,0,1-1.5,1.5h0A1.5,1.5,0,0,1,425.58,244Zm0-36.83a1.5,1.5,0,0,1,1.5-1.5h0a1.5,1.5,0,0,1,1.5,1.5h0a1.5,1.5,0,0,1-1.5,1.5h0A1.5,1.5,0,0,1,425.58,207.15Z" style="fill:#fff"></path><path d="M427.08,392.83a1.5,1.5,0,0,1-1.06-2.56,2.11,2.11,0,0,1,.23-.19l.26-.14.28-.08a1.47,1.47,0,0,1,.59,0l.28.08a2,2,0,0,1,.25.14,1.45,1.45,0,0,1,.23.19,1.5,1.5,0,0,1,.44,1.06,1.46,1.46,0,0,1-.44,1.06A1.5,1.5,0,0,1,427.08,392.83Z" style="fill:#fff"></path><rect x="53.79" y="392.21" width="41.21" height="0.25" style="fill:#e0e0e0"></rect><rect x="137.67" y="390.21" width="41.33" height="0.25" style="fill:#e0e0e0"></rect><rect x="222.78" y="390.21" width="10" height="0.25" style="fill:#e0e0e0"></rect><rect x="86.58" y="398.75" width="46.25" height="0.25" style="fill:#e0e0e0"></rect><rect x="271.2" y="392.08" width="21.6" height="0.25" style="fill:#e0e0e0"></rect><rect x="301.7" y="392.08" width="27.93" height="0.25" style="fill:#e0e0e0"></rect><rect x="401.89" y="396.31" width="62.44" height="0.25" style="fill:#e0e0e0"></rect><polygon points="233.41 87.65 187.34 87.65 189.86 58.94 235.92 58.94 233.41 87.65" style="fill:#ebebeb"></polygon><polygon points="234.34 55.04 233.08 70.03 231.82 88.05 187.52 88.05 190.04 55.04 234.34 55.04" style="fill:#fafafa"></polygon><polygon points="230.11 58.94 232.62 87.65 186.56 87.65 184.04 58.94 187.96 58.94 189.32 56.78 201.73 56.78 203.51 58.94 230.11 58.94" style="fill:#e0e0e0"></polygon><rect x="255.79" y="94.06" width="49.02" height="49.02" style="fill:#ebebeb"></rect><rect x="304.81" y="94.06" width="1.25" height="49.02" style="fill:#e0e0e0"></rect><rect x="260.31" y="98.6" width="39.96" height="39.96" style="fill:#f5f5f5"></rect><rect x="260.32" y="98.6" width="0.37" height="39.96" style="fill:#e0e0e0"></rect><ellipse cx="280.67" cy="114.43" rx="7.79" ry="9.92" style="fill:#e0e0e0"></ellipse><rect x="276.6" y="121.15" width="8.21" height="8.21" transform="translate(561.41 250.52) rotate(180)" style="fill:#e0e0e0"></rect><path d="M265.4,126.12h30.08a0,0,0,0,1,0,0v2.8a9.64,9.64,0,0,1-9.64,9.64H275a9.64,9.64,0,0,1-9.64-9.64v-2.8A0,0,0,0,1,265.4,126.12Z" transform="translate(560.87 264.68) rotate(180)" style="fill:#e0e0e0"></path><path d="M264.64,121.88c0,1.63,3,3,3,3s3-1.33,3-3c0-.78-1.08-1.22-1.79-1A2.18,2.18,0,0,0,267.6,122a3.87,3.87,0,0,0-1.47-1.2A1.12,1.12,0,0,0,264.64,121.88Z" style="fill:#e0e0e0"></path><path d="M291.26,114.59c0,2.15,3.89,3.89,3.89,3.89s3.89-1.74,3.89-3.89c0-1-1.44-1.59-2.35-1.33a2.84,2.84,0,0,0-1.54,1.48,5.26,5.26,0,0,0-1.93-1.58A1.47,1.47,0,0,0,291.26,114.59Z" style="fill:#e0e0e0"></path><path d="M205.71,359.32c.46,2.89,2.55,5.38,2.71,8.3.13,2.29-.94,4.44-1.47,6.67s-.27,5,1.68,6.18a4.48,4.48,0,0,0,4.52-.27,10.26,10.26,0,0,0,3.15-3.49,32.46,32.46,0,0,0,4.85-16.48c0-2.45-.25-5.05-1.69-7C215,347,204.57,352.12,205.71,359.32Z" style="fill:#f5f5f5"></path><path d="M202,351.67a3.2,3.2,0,0,0,1.61.95,2.32,2.32,0,0,0,2.21-.43,2.61,2.61,0,0,0,.5-2.11,5,5,0,0,0-.91-2.56,2.78,2.78,0,0,0-2.36-1.15,2,2,0,0,0-1.82,1.74A6.11,6.11,0,0,0,202,351.67Z" style="fill:#f5f5f5"></path><path d="M210.31,345.66a1.92,1.92,0,0,0-1.94-.85,1.87,1.87,0,0,0-1.44,1.54,5.54,5.54,0,0,0,0,.73,5.82,5.82,0,0,0,.13,1.17,2.27,2.27,0,0,0,.51,1,2.39,2.39,0,0,0,1.25.64,1.86,1.86,0,0,0,1.67-.42,2.35,2.35,0,0,0,.52-1.75A3.72,3.72,0,0,0,210.31,345.66Z" style="fill:#f5f5f5"></path><path d="M214.94,345.41a1.43,1.43,0,0,0-1.75-.66,2.08,2.08,0,0,0-1.24,1.51c0,.22-.06.44-.07.66A4.28,4.28,0,0,0,212,348a1.65,1.65,0,0,0,.52.9,1.84,1.84,0,0,0,1,.42,1.66,1.66,0,0,0,1.33-.43,2.41,2.41,0,0,0,.6-1.6A3,3,0,0,0,214.94,345.41Z" style="fill:#f5f5f5"></path><path d="M219.07,346.37c-.49-.73-1-.78-1.56-.47a2.63,2.63,0,0,0-1,1.49,3.64,3.64,0,0,0-.12.59,3.1,3.1,0,0,0,0,1,1.27,1.27,0,0,0,.52.79,1.35,1.35,0,0,0,.83.2,1.61,1.61,0,0,0,1-.47,2.57,2.57,0,0,0,.67-1.43A2.41,2.41,0,0,0,219.07,346.37Z" style="fill:#f5f5f5"></path><path d="M219.88,350.42a1.6,1.6,0,0,0,0,.72.75.75,0,0,0,.43.56,1.06,1.06,0,0,0,1.1-.42,2.57,2.57,0,0,0,.63-1.08,1.57,1.57,0,0,0-.15-1.22C221,347.53,220,349.7,219.88,350.42Z" style="fill:#f5f5f5"></path><path d="M220.69,426.11c.67-2.36,1.06-4.95.17-7.24-2.75-7.13-14.11-4.86-14.86,2.4Z" style="fill:#f5f5f5"></path><path d="M204.42,412.93a3.19,3.19,0,0,0,1.32,1.33,2.31,2.31,0,0,0,2.24.15,2.63,2.63,0,0,0,1-1.91,5,5,0,0,0-.22-2.7,2.81,2.81,0,0,0-2-1.73,2,2,0,0,0-2.2,1.21A6.17,6.17,0,0,0,204.42,412.93Z" style="fill:#f5f5f5"></path><path d="M214,409.24a1.94,1.94,0,0,0-1.66-1.32,1.89,1.89,0,0,0-1.79,1.12,5.78,5.78,0,0,0-.22.7,5.51,5.51,0,0,0-.18,1.16,2.2,2.2,0,0,0,.23,1.13,2.42,2.42,0,0,0,1,.93,1.82,1.82,0,0,0,1.71,0,2.36,2.36,0,0,0,1-1.55A3.84,3.84,0,0,0,214,409.24Z" style="fill:#f5f5f5"></path><path d="M218.5,410.19A1.44,1.44,0,0,0,217,409.1a2.11,2.11,0,0,0-1.59,1.15,6.44,6.44,0,0,0-.24.61,4.07,4.07,0,0,0-.2,1.05,1.69,1.69,0,0,0,.26,1,1.81,1.81,0,0,0,.9.67,1.64,1.64,0,0,0,1.4-.08,2.4,2.4,0,0,0,1-1.38A3,3,0,0,0,218.5,410.19Z" style="fill:#f5f5f5"></path><path d="M222.24,412.18c-.28-.84-.81-1-1.38-.86a2.66,2.66,0,0,0-1.38,1.17,5.42,5.42,0,0,0-.27.54,3.07,3.07,0,0,0-.22.94,1.28,1.28,0,0,0,.29.89,1.33,1.33,0,0,0,.75.41,1.55,1.55,0,0,0,1.09-.19,2.58,2.58,0,0,0,1-1.21A2.4,2.4,0,0,0,222.24,412.18Z" style="fill:#f5f5f5"></path><path d="M222,416.3a1.58,1.58,0,0,0-.21.69.77.77,0,0,0,.27.65,1.06,1.06,0,0,0,1.17-.12,2.68,2.68,0,0,0,.89-.88,1.59,1.59,0,0,0,.17-1.22C223.77,413.79,222.32,415.65,222,416.3Z" style="fill:#f5f5f5"></path><path d="M181.27,383.66c.37,2.91-1,5.88-.3,8.73.51,2.23,2.14,4,3.26,6s1.65,4.72.09,6.4a4.46,4.46,0,0,1-4.41,1,10.49,10.49,0,0,1-4-2.49,32.45,32.45,0,0,1-9.22-14.49c-.72-2.35-1.16-4.92-.32-7.23C169,374.39,180.38,376.43,181.27,383.66Z" style="fill:#f5f5f5"></path><path d="M182.68,375.3a3.15,3.15,0,0,1-1.28,1.35,2.29,2.29,0,0,1-2.24.2,2.59,2.59,0,0,1-1.07-1.89,5.09,5.09,0,0,1,.16-2.71,2.81,2.81,0,0,1,2-1.76,2,2,0,0,1,2.23,1.16C182.76,372.58,183.11,374.39,182.68,375.3Z" style="fill:#f5f5f5"></path><path d="M173.07,371.81a1.94,1.94,0,0,1,1.63-1.36,1.89,1.89,0,0,1,1.81,1.09,5,5,0,0,1,.24.69,5.42,5.42,0,0,1,.2,1.15,2.14,2.14,0,0,1-.21,1.14,2.34,2.34,0,0,1-1,1,1.82,1.82,0,0,1-1.71.07,2.36,2.36,0,0,1-1-1.54A3.72,3.72,0,0,1,173.07,371.81Z" style="fill:#f5f5f5"></path><path d="M168.55,372.85a1.43,1.43,0,0,1,1.5-1.12,2.11,2.11,0,0,1,1.61,1.11,5.22,5.22,0,0,1,.25.61,4.1,4.1,0,0,1,.23,1.05,1.73,1.73,0,0,1-.25,1,1.81,1.81,0,0,1-.88.69,1.63,1.63,0,0,1-1.4-.05,2.37,2.37,0,0,1-1-1.36A3,3,0,0,1,168.55,372.85Z" style="fill:#f5f5f5"></path><path d="M164.85,374.92c.27-.84.79-1,1.37-.89a2.66,2.66,0,0,1,1.4,1.15,4.6,4.6,0,0,1,.28.53,2.72,2.72,0,0,1,.24.93,1.24,1.24,0,0,1-.27.9,1.32,1.32,0,0,1-.74.42,1.57,1.57,0,0,1-1.1-.16,2.63,2.63,0,0,1-1.05-1.19A2.41,2.41,0,0,1,164.85,374.92Z" style="fill:#f5f5f5"></path><path d="M165.19,379a1.76,1.76,0,0,1,.23.69.79.79,0,0,1-.26.66,1.09,1.09,0,0,1-1.18-.1,2.56,2.56,0,0,1-.9-.86,1.55,1.55,0,0,1-.19-1.22C163.36,376.56,164.85,378.39,165.19,379Z" style="fill:#f5f5f5"></path><path d="M156.73,143.59a11.75,11.75,0,1,1,10-13.27A11.77,11.77,0,0,1,156.73,143.59Zm-2.38-17.1a5.51,5.51,0,1,0,6.21,4.7A5.52,5.52,0,0,0,154.35,126.49Z" style="fill:#e0e0e0"></path><rect x="149.86" y="97.09" width="4.46" height="28.69" transform="translate(-13.94 22.09) rotate(-7.95)" style="fill:#e0e0e0"></rect><rect x="147.94" y="93.82" width="8.37" height="4.46" transform="matrix(0.99, -0.14, 0.14, 0.99, -11.82, 21.95)" style="fill:#e0e0e0"></rect><rect x="149.23" y="99.46" width="7.87" height="4.46" transform="translate(-12.59 22.15) rotate(-7.94)" style="fill:#e0e0e0"></rect><rect x="151.36" y="107.4" width="6.87" height="4.46" transform="translate(-13.67 22.45) rotate(-7.94)" style="fill:#e0e0e0"></rect></g><g id="freepik--Fingerprint--inject-74"><ellipse cx="128.44" cy="225.06" rx="24.14" ry="26.34" transform="translate(-122.95 162.21) rotate(-46.25)" style="fill:#D96C2C"></ellipse><g style="opacity:0.8"><ellipse cx="128.44" cy="225.06" rx="24.14" ry="26.34" transform="translate(-122.95 162.21) rotate(-46.25)" style="fill:#fff"></ellipse></g><path d="M116.69,209.24a1,1,0,0,1-.6-1.8,19.21,19.21,0,0,1,11.57-3.6h0a1,1,0,0,1,0,2h0a17.18,17.18,0,0,0-10.37,3.2A1,1,0,0,1,116.69,209.24Z" style="fill:#D96C2C"></path><path d="M121.42,243.64a1,1,0,0,1-.47-.12,23.3,23.3,0,0,1-11.9-16.18,20.37,20.37,0,0,1,4-17,1,1,0,0,1,1.54,1.28A18.39,18.39,0,0,0,111,227a21.37,21.37,0,0,0,10.88,14.8,1,1,0,0,1-.47,1.88Z" style="fill:#D96C2C"></path><path d="M131.43,246.25a21.6,21.6,0,0,1-6.59-1.06,1,1,0,0,1,.62-1.91c6.15,2,12.29.88,16.84-3a17.92,17.92,0,0,0,5.78-16.6,1,1,0,1,1,2-.32,19.83,19.83,0,0,1-6.45,18.43A18.44,18.44,0,0,1,131.43,246.25Z" style="fill:#D96C2C"></path><path d="M148.25,221.12a1,1,0,0,1-.95-.7,21.31,21.31,0,0,0-11.58-12.89,1,1,0,0,1,.8-1.84,23.34,23.34,0,0,1,12.68,14.12,1,1,0,0,1-.64,1.26A1.18,1.18,0,0,1,148.25,221.12Z" style="fill:#D96C2C"></path><path d="M132.49,206.4a.85.85,0,0,1-.23,0,20.33,20.33,0,0,0-4.59-.53,1,1,0,0,1-1-1,1,1,0,0,1,1-1h0a22.05,22.05,0,0,1,5,.59,1,1,0,0,1-.23,2Z" style="fill:#D96C2C"></path><path d="M114.85,230.29a1,1,0,0,1-.94-.65,15.87,15.87,0,0,1,1.76-14.78,15,15,0,0,1,12.52-6.46h0a1,1,0,0,1,0,2h0A13.09,13.09,0,0,0,117.3,216,13.93,13.93,0,0,0,115.79,229a1,1,0,0,1-.59,1.28A1.07,1.07,0,0,1,114.85,230.29Z" style="fill:#D96C2C"></path><path d="M130.71,241.71h0a18.63,18.63,0,0,1-15-8.47,1,1,0,0,1,1.67-1.09,16.62,16.62,0,0,0,13.33,7.56,1,1,0,0,1,0,2Z" style="fill:#D96C2C"></path><path d="M134.45,241.28a1,1,0,0,1-1-.76,1,1,0,0,1,.73-1.21c8.11-2,10.21-9.11,9.54-14.57-.87-7.12-6.49-14.33-15.56-14.34a1,1,0,0,1-1-1,1,1,0,0,1,1-1h0c10.23,0,16.57,8.1,17.55,16.1,1,8.25-3.33,14.83-11.05,16.75A1,1,0,0,1,134.45,241.28Z" style="fill:#D96C2C"></path><path d="M124.1,215.92a1,1,0,0,1-.9-.58,1,1,0,0,1,.48-1.33,11.71,11.71,0,0,1,4.87-1,1,1,0,0,1,0,2,9.66,9.66,0,0,0-4,.87A1,1,0,0,1,124.1,215.92Z" style="fill:#D96C2C"></path><path d="M130.53,237.05a13.25,13.25,0,0,1-11.91-7.9c-2.07-4.51-1.46-9.22,1.63-12.62a1,1,0,0,1,1.41-.06,1,1,0,0,1,.06,1.41,9.28,9.28,0,0,0-1.28,10.43,11.25,11.25,0,0,0,10.41,6.74,8.64,8.64,0,0,0,7.85-5.17A10.33,10.33,0,0,0,136.86,219a1,1,0,1,1,1.52-1.3,12.32,12.32,0,0,1,2.15,13,10.62,10.62,0,0,1-9.62,6.36Z" style="fill:#D96C2C"></path><path d="M134.74,216.8a.94.94,0,0,1-.53-.16,10.56,10.56,0,0,0-5.66-1.68,1,1,0,0,1,0-2h0a12.48,12.48,0,0,1,6.73,2,1,1,0,0,1-.54,1.84Z" style="fill:#D96C2C"></path><path d="M130,232.54a8,8,0,0,1-6.11-2.9,7.61,7.61,0,0,1-1.2-8.15,6.75,6.75,0,0,1,6.27-4h0a1,1,0,0,1,0,2,4.79,4.79,0,0,0-4.45,2.81,5.61,5.61,0,0,0,.91,6,5.91,5.91,0,0,0,6,2,4.73,4.73,0,0,0,3.59-3.64,1,1,0,0,1,1.19-.76,1,1,0,0,1,.77,1.19,6.71,6.71,0,0,1-5.06,5.15A8.12,8.12,0,0,1,130,232.54Z" style="fill:#D96C2C"></path><path d="M135.82,224.62a1,1,0,0,1-1-.7,6.32,6.32,0,0,0-5.87-4.4,1,1,0,1,1,0-2h0a8.37,8.37,0,0,1,7.78,5.8,1,1,0,0,1-.65,1.26A1,1,0,0,1,135.82,224.62Z" style="fill:#D96C2C"></path><path d="M130.27,228.38a1,1,0,0,1,0-2,1,1,0,0,0,1-1.06,1.47,1.47,0,0,0-1.45-1.51,1.11,1.11,0,0,0-.78.35,1.2,1.2,0,0,0-.28.88,1,1,0,1,1-2,.12,3.09,3.09,0,0,1,3-3.35,3.46,3.46,0,0,1,3.45,3.51,3,3,0,0,1-3,3.06Z" style="fill:#D96C2C"></path><path d="M156,225.05c1.22,13.93-9.09,25.22-23,25.22l-1.08,0c13.26-.68,22.89-11.7,21.71-25.19a28.13,28.13,0,0,0-26.11-25.18c.35,0,.71,0,1.07,0C142.54,199.84,154.82,211.13,156,225.05Z" style="fill:#D96C2C"></path><g style="opacity:0.4;isolation:isolate"><path d="M156,225.05c1.22,13.93-9.09,25.22-23,25.22l-1.08,0c13.26-.68,22.89-11.7,21.71-25.19a28.13,28.13,0,0,0-26.11-25.18c.35,0,.71,0,1.07,0C142.54,199.84,154.82,211.13,156,225.05Z" style="fill:#fff"></path></g></g><g id="freepik--verification-code--inject-74"><path d="M176.42,102.14a8.66,8.66,0,0,0,.12.89,9.12,9.12,0,0,0,2.82,5,9,9,0,0,0,6.07,2.43h84.49a7.44,7.44,0,0,0,7.59-7.4,8.88,8.88,0,0,0,0-.89,9.25,9.25,0,0,0-9-8.28H184A7.47,7.47,0,0,0,176.42,102.14Z" style="fill:#D96C2C"></path><path d="M176.42,102.14a8.66,8.66,0,0,0,.12.89,9.12,9.12,0,0,0,2.82,5,9,9,0,0,0,6.07,2.43h84.49a7.44,7.44,0,0,0,7.59-7.4,8.88,8.88,0,0,0,0-.89,9.25,9.25,0,0,0-9-8.28H184A7.47,7.47,0,0,0,176.42,102.14Z" style="fill:#fff;opacity:0.8"></path><path d="M277.51,103a5.29,5.29,0,0,1-.06.8,9.25,9.25,0,0,0-9-8L178.62,96A7.56,7.56,0,0,1,184,93.86h84.49a9.25,9.25,0,0,1,9,8.28A8.88,8.88,0,0,1,277.51,103Z" style="fill:#D96C2C"></path><path d="M277.51,103a5.29,5.29,0,0,1-.06.8,9.25,9.25,0,0,0-9-8L178.62,96A7.56,7.56,0,0,1,184,93.86h84.49a9.25,9.25,0,0,1,9,8.28A8.88,8.88,0,0,1,277.51,103Z" style="fill:#fff;opacity:0.5;isolation:isolate"></path><path d="M263,97.86l.36,4,3.76-1.4.89,2-3.84,1.28,2.76,3.39-1.73,1.27-2.69-3.52-2,3.52-1.89-1.27,2.13-3.39-4-1.28.54-2,4.05,1.35-.36-4Z" style="fill:#D96C2C"></path><path d="M239.85,97.86l.36,4,3.76-1.4.9,2L241,103.77l2.76,3.39-1.72,1.27-2.69-3.52-2,3.52-1.9-1.27,2.14-3.39-4-1.28.54-2,4.05,1.35-.35-4Z" style="fill:#D96C2C"></path><path d="M216.75,97.86l.35,4,3.76-1.4.9,2-3.85,1.28,2.76,3.39L219,108.43l-2.69-3.52-2,3.52-1.89-1.27,2.13-3.39-4-1.28.55-2,4,1.35-.35-4Z" style="fill:#D96C2C"></path><path d="M193.64,97.86l.35,4,3.77-1.4.89,2-3.85,1.28,2.77,3.39-1.73,1.27-2.69-3.52-2,3.52-1.89-1.27,2.13-3.39-4-1.28.54-2,4,1.35-.35-4Z" style="fill:#D96C2C"></path><rect x="245.71" y="89.94" width="3.94" height="1" style="fill:#D96C2C"></rect><rect x="253.73" y="89.94" width="12.85" height="1" style="fill:#D96C2C"></rect></g><g id="freepik--face-recognition--inject-74"><path d="M397.79,127.24,393.7,174a6.17,6.17,0,0,1-6,5.52H355.23a5,5,0,0,1-5-5.52l4.09-46.77a6.14,6.14,0,0,1,6-5.52h32.47A5,5,0,0,1,397.79,127.24Z" style="fill:#D96C2C;opacity:0.8"></path><path d="M397.79,127.24,393.7,174a6.17,6.17,0,0,1-6,5.52H355.23a5,5,0,0,1-5-5.52l4.09-46.77a6.14,6.14,0,0,1,6-5.52h32.47A5,5,0,0,1,397.79,127.24Z" style="fill:#fff;opacity:0.8"></path><path d="M357.28,134.78h-.09a1,1,0,0,1-.91-1.08l.38-4.28a1,1,0,0,1,1-.91h4.52a1,1,0,0,1,0,2h-3.6l-.3,3.36A1,1,0,0,1,357.28,134.78Z" style="fill:#D96C2C"></path><path d="M393.64,134.78h-.09a1,1,0,0,1-.91-1.08l.28-3.19H389.5a1,1,0,0,1,0-2H394a1,1,0,0,1,1,1.09l-.38,4.27A1,1,0,0,1,393.64,134.78Z" style="fill:#D96C2C"></path><path d="M359,167.05h-4.52a1,1,0,0,1-.73-.32,1,1,0,0,1-.26-.76l.37-4.28a1,1,0,0,1,2,.17l-.28,3.19H359a1,1,0,0,1,0,2Z" style="fill:#D96C2C"></path><path d="M390.81,167.05H386.3a1,1,0,0,1,0-2h3.6l.29-3.36a1,1,0,0,1,1.08-.91,1,1,0,0,1,.91,1.08l-.37,4.28A1,1,0,0,1,390.81,167.05Z" style="fill:#D96C2C"></path><ellipse cx="374.61" cy="147.63" rx="16.37" ry="13.16" transform="translate(138.13 473.52) rotate(-75.54)" style="fill:#fff"></ellipse><polygon points="378.55 172.53 365.6 172.53 366.73 159.58 379.68 159.58 378.55 172.53" style="fill:#fff"></polygon><path d="M393.7,174a6.17,6.17,0,0,1-6,5.52H355.23a5,5,0,0,1-5-5.52s14.92-4.72,16.76-4.72h11.53Z" style="fill:#fff"></path><rect x="390.17" y="149.62" width="18.43" height="1" transform="translate(217.01 535.84) rotate(-85.29)" style="fill:#D96C2C"></rect><rect x="399.24" y="133.84" width="3.62" height="1" transform="translate(234.26 523.01) rotate(-85.29)" style="fill:#D96C2C"></rect></g><g id="freepik--Verified--inject-74"><rect x="361.94" y="244.07" width="3.94" height="1" style="fill:#D96C2C"></rect><rect x="369.96" y="244.07" width="12.85" height="1" style="fill:#D96C2C"></rect><path d="M406.33,227l-2.49,28.5a5.18,5.18,0,0,1-5.06,4.65,4.2,4.2,0,0,1-4.25-4.65L397,227a15.08,15.08,0,0,0-15.24-16.7H371.6A18.61,18.61,0,0,0,353.44,227l-1,11.64h-9.3l1-11.64c1.25-14.34,13.94-26,28.27-26h10.2A23.47,23.47,0,0,1,406.33,227Z" style="fill:#D96C2C"></path><g style="opacity:0.5;isolation:isolate"><path d="M406.33,227l-2.49,28.5a5.18,5.18,0,0,1-5.06,4.65,4.2,4.2,0,0,1-4.25-4.65L397,227a15.08,15.08,0,0,0-15.24-16.7H371.6A18.61,18.61,0,0,0,353.44,227l-1,11.64h-9.3l1-11.64c1.25-14.34,13.94-26,28.27-26h10.2A23.47,23.47,0,0,1,406.33,227Z" style="fill:#fff"></path></g><path d="M407,254.46,402.15,310a7.07,7.07,0,0,1-6.92,6.35H339.69a5.73,5.73,0,0,1-5.8-6.35l4.86-55.54a7.07,7.07,0,0,1,3.46-5.39,6.8,6.8,0,0,1,3.46-1H401.2a6,6,0,0,1,3.21.91A5.76,5.76,0,0,1,407,254.46Z" style="fill:#D96C2C"></path><path d="M349.25,278.72l14.43,22.21,47.59-47.59a.48.48,0,0,0-.63-.71l-45.35,35.55-8.57-13.81Z" style="fill:#fff"></path></g><g id="freepik--eye-scan--inject-74"><path d="M122,171.31H85.82a6.85,6.85,0,0,1-6.69-6.15L76,129a5.54,5.54,0,0,1,5.61-6.15h36.14A6.84,6.84,0,0,1,124.4,129l3.16,36.14A5.54,5.54,0,0,1,122,171.31Z" style="fill:#D96C2C"></path><path d="M122,171.31H85.82a6.85,6.85,0,0,1-6.69-6.15L76,129a5.54,5.54,0,0,1,5.61-6.15h36.14A6.84,6.84,0,0,1,124.4,129l3.16,36.14A5.54,5.54,0,0,1,122,171.31Z" style="fill:#fff;opacity:0.8"></path><path d="M79.15,150.73S92,132.84,101.46,133.3s25.18,17,25.18,17S103.47,162.47,79.15,150.73Z" style="fill:#fff"></path><path d="M79.56,151l-.81-.58c.52-.73,12.77-17.65,22.35-17.65h.39c9.56.46,24.86,16.48,25.51,17.16l-.72.69c-.16-.16-15.68-16.41-24.84-16.85h-.34C92,133.79,79.68,150.85,79.56,151Z" style="fill:#263238"></path><path d="M77.82,151.36c-1.94,0-4.46-.72-5.35-3.46a.5.5,0,0,1,.32-.63.49.49,0,0,1,.63.32c1.15,3.54,5.45,2.69,5.63,2.65a.51.51,0,0,1,.59.39.5.5,0,0,1-.39.59A7.36,7.36,0,0,1,77.82,151.36Z" style="fill:#263238"></path><path d="M85.45,143.68a.5.5,0,0,1-.31-.1c-.15-.12-3.7-2.86-4.6-5.65a.5.5,0,0,1,.32-.63.51.51,0,0,1,.63.32c.81,2.49,4.22,5.14,4.26,5.16a.5.5,0,0,1,.09.7A.5.5,0,0,1,85.45,143.68Z" style="fill:#263238"></path><path d="M92.79,136.87h0a.52.52,0,0,1-.49-.51,52.06,52.06,0,0,0-2.17-6.4c-.25-.66-.43-1.14-.47-1.26a.5.5,0,0,1,.34-.63.5.5,0,0,1,.62.34c0,.12.21.56.44,1.19,1.4,3.67,2.26,6.08,2.24,6.78A.49.49,0,0,1,92.79,136.87Z" style="fill:#263238"></path><path d="M101.46,133.8a.52.52,0,0,1-.5-.46l-.7-8a.5.5,0,0,1,1-.09l.7,8.06a.51.51,0,0,1-.45.54Z" style="fill:#263238"></path><path d="M128.14,150.81a8.44,8.44,0,0,1-1.46-.12.5.5,0,0,1-.39-.59.48.48,0,0,1,.58-.39s2.45.47,3.95-.59a2.8,2.8,0,0,0,1.14-2,.5.5,0,1,1,1,.15,3.79,3.79,0,0,1-1.56,2.65A5.7,5.7,0,0,1,128.14,150.81Z" style="fill:#263238"></path><path d="M119.16,143.15a.48.48,0,0,1-.37-.17.5.5,0,0,1,0-.71s3-2.64,3.32-5.1a.51.51,0,0,1,.57-.42.5.5,0,0,1,.42.57c-.42,2.82-3.52,5.58-3.65,5.7A.46.46,0,0,1,119.16,143.15Z" style="fill:#263238"></path><path d="M110.71,137.34h-.09a.51.51,0,0,1-.41-.58c0-.06,1.1-6.49,1.3-7.81a.5.5,0,1,1,1,.15c-.2,1.33-1.29,7.77-1.3,7.83A.5.5,0,0,1,110.71,137.34Z" style="fill:#263238"></path><ellipse cx="102.45" cy="144.63" rx="10.84" ry="11.84" transform="translate(-72.87 118.63) rotate(-46.25)" style="fill:#D96C2C"></ellipse><path d="M107.14,144.63a6.45,6.45,0,0,0,0-.76,5.36,5.36,0,0,0-5.24-4.81,4.34,4.34,0,0,0-4.39,4.81,3.28,3.28,0,0,0,.14.76H91.13a10.21,10.21,0,0,1,10.33-11.33,12.63,12.63,0,0,1,12.33,11.33Z" style="opacity:0.30000000000000004"></path><path d="M107.13,143.87a6.45,6.45,0,0,1,0,.76,4.33,4.33,0,0,1-4.41,4.05,5.35,5.35,0,0,1-5.09-4.05,3.28,3.28,0,0,1-.14-.76,4.34,4.34,0,0,1,4.39-4.81A5.36,5.36,0,0,1,107.13,143.87Z" style="opacity:0.7000000000000001"></path><path d="M109.74,139.15a3.54,3.54,0,0,1-3.58,3.92,4.37,4.37,0,0,1-4.26-3.92,3.53,3.53,0,0,1,3.58-3.92A4.36,4.36,0,0,1,109.74,139.15Z" style="fill:#fff;opacity:0.7000000000000001"></path><rect x="90.32" y="118.38" width="3.94" height="1" style="fill:#D96C2C"></rect><rect x="98.34" y="118.38" width="12.85" height="1" style="fill:#D96C2C"></rect></g></svg>
