<svg version="1.1" id="Layer_1" xmlns="http://www.w3.org/2000/svg"
	xmlns:xlink="http://www.w3.org/1999/xlink" x="0px" y="0px"
	viewBox="0 0 500 500" style="enable-background:new 0 0 500 500;" xml:space="preserve">
<style type="text/css">
	.st0{fill:#FFFFDC;}
	.st1{fill:#E01E51;}
</style>
<rect x="-138.1" y="-18.1" class="st0" width="876.3" height="659.9"/>
<path class="st1" d="M250,40.6c-53.3,0-96.5,43.2-96.5,96.5s43.2,96.5,96.5,96.5s96.5-43.2,96.5-96.5c0,0,0,0,0,0
	C346.5,83.8,303.3,40.6,250,40.6z"/>
<path class="st1" d="M419.3,391.5c-0.2,9.2-5,15.1-12,20.7c-45.1,35.8-98.8,58.6-157,58.6c-57.6,0-111.9-22.2-156.4-58.1
	c-19-15.3-13.3-36.9-7.2-57.9c16.2-55.8,67.4-94.1,125.4-94h76.4c66.3,0,123.8,51.9,130.1,118C419,383,419.3,387.3,419.3,391.5z"/>
</svg>