<svg width="127" height="43" viewBox="0 0 127 43" fill="none" xmlns="http://www.w3.org/2000/svg">
<path d="M3.53311 25.7542V27.1756H0V0.54595H3.73484V9.19954C3.93791 8.87436 4.83114 7.49404 6.94278 7.49404C9.66361 7.49404 11.4089 9.07743 11.4089 12.9344V21.9782C11.4089 25.8763 9.66229 27.4185 6.94278 27.4185C4.83114 27.4185 3.73485 26.078 3.53178 25.7542H3.53311ZM7.63294 21.1659V13.7467C7.63294 11.716 6.98392 10.9037 5.68456 10.9037C4.38519 10.9037 3.73617 11.7571 3.73617 13.7055V21.1646C3.73617 23.2351 4.42634 24.0075 5.68456 24.0075C6.94278 24.0075 7.63294 23.2762 7.63294 21.1646V21.1659Z" fill="#042029"/>
<path d="M12.7613 13.0153C12.7613 9.11718 14.5478 7.57493 17.2275 7.57493C19.3391 7.57493 20.4752 8.91544 20.6783 9.23929V7.778H24.1703V27.1756H20.6783V25.7143C20.4752 26.0395 19.3378 27.4198 17.2275 27.4198C14.5478 27.4198 12.7613 25.8775 12.7613 21.9383V13.0153ZM20.4354 21.1658V13.0153C20.4354 11.554 19.4612 10.9846 18.487 10.9846C17.2288 10.9846 16.5386 11.7159 16.5386 13.8275V21.1658C16.5386 23.2775 17.2288 23.9676 18.487 23.9676C19.8275 23.9676 20.4354 23.2363 20.4354 21.1658Z" fill="#042029"/>
<path d="M29.746 27.1756H26.0112V7.778H29.5443V9.28043C29.7474 8.95526 30.8437 7.57493 32.9553 7.57493C35.6761 7.57493 37.4215 9.15833 37.4215 13.0153V27.1742H33.6455V13.0962C33.6455 11.5938 32.7111 10.9846 31.6971 10.9846C30.6831 10.9846 29.7487 11.5938 29.7487 13.0153V27.1742L29.746 27.1756Z" fill="#042029"/>
<path d="M38.8124 21.9781V12.9755C38.8124 9.07738 40.5989 7.53513 43.2786 7.53513C45.3902 7.53513 46.3233 8.87564 46.4865 9.19948V0.545898H50.2227V27.1756H46.7307V25.7541C46.5276 26.0793 45.3902 27.4185 43.2799 27.4185C40.6002 27.4185 38.8137 25.8762 38.8137 21.9781H38.8124ZM46.4878 21.1659V13.7466C46.4878 11.635 45.8388 10.9448 44.5394 10.9448C43.321 10.9448 42.5911 11.7159 42.5911 13.7877V21.1659C42.5911 23.2775 43.2812 24.0088 44.5394 24.0088C45.7977 24.0088 46.4878 23.2775 46.4878 21.1659Z" fill="#042029"/>
<path d="M50.8983 8.14302H54.7154L56.8257 19.9833L58.8962 8.14302H62.1851L64.2158 19.9833L66.3685 8.14302H70.1445L66.2464 27.1756H62.5116L60.5221 15.4707L58.5325 27.1756H54.8375L50.8983 8.14302Z" fill="#042029"/>
<path d="M70.5453 13.0153C70.5453 9.11718 72.3318 7.57493 75.0115 7.57493C77.1231 7.57493 78.2592 8.91544 78.4636 9.23929V7.778H81.9556V27.1756H78.4636V25.7143C78.2606 26.0395 77.1231 27.4198 75.0115 27.4198C72.3318 27.4198 70.5453 25.8775 70.5453 21.9383V13.0153ZM78.2194 21.1658V13.0153C78.2194 11.554 77.2439 10.9846 76.271 10.9846C75.0128 10.9846 74.3227 11.7159 74.3227 13.8275V21.1658C74.3227 23.2775 75.0128 23.9676 76.271 23.9676C77.6115 23.9676 78.2194 23.2363 78.2194 21.1658Z" fill="#042029"/>
<path d="M87.5286 27.1756H83.7924V7.778H87.3255V9.28043C87.5286 8.95526 88.6249 7.57493 90.7365 7.57493C93.4561 7.57493 95.2027 9.15833 95.2027 13.0153V27.1742H91.4267V13.0962C91.4267 11.5938 90.4923 10.9846 89.4783 10.9846C88.4643 10.9846 87.5299 11.5938 87.5299 13.0153V27.1742L87.5286 27.1756Z" fill="#042029"/>
<path d="M115.326 27.4597C118.899 27.4597 121.011 25.145 121.011 21.4101V13.5038C121.011 9.88969 118.899 7.53517 115.326 7.53517C111.753 7.53517 109.602 9.88969 109.602 13.5038V21.4101C109.602 25.145 111.672 27.4597 115.326 27.4597ZM113.337 13.0154C113.337 11.5541 114.23 10.9037 115.326 10.9037C116.423 10.9037 117.275 11.5528 117.275 13.0154V21.9371C117.275 23.4793 116.34 24.0487 115.326 24.0487C114.312 24.0487 113.337 23.4793 113.337 21.9371V13.0154Z" fill="#66C61C"/>
<path d="M123.04 30.7817L121.688 29.0762H108.005V7.77807H104.513V9.23936C104.269 8.83322 103.011 7.61482 100.94 7.61482C98.3417 7.61482 96.5964 9.15707 96.5964 13.0153V21.937C96.5964 25.8763 98.3829 27.4185 101.063 27.4185C103.174 27.4185 104.067 26.0382 104.27 25.713V29.0749H102.322C98.6682 29.0749 96.5977 31.3896 96.5977 35.1245V35.9686C96.5977 39.7034 98.6682 42.0181 102.322 42.0181C105.976 42.0181 108.007 39.7034 108.007 35.9686V32.4872H121.689L123.042 30.7817H123.04ZM102.321 23.9677C100.899 23.9677 100.372 23.0745 100.372 20.6377V13.0565C100.372 11.5541 101.266 10.9449 102.321 10.9449C103.742 10.9449 104.269 11.7571 104.269 14.2338V20.72C104.269 23.1554 103.782 23.9677 102.321 23.9677ZM104.269 36.4968C104.269 38.0391 103.335 38.6084 102.321 38.6084C101.307 38.6084 100.331 38.0391 100.331 36.4968V34.5975C100.331 33.0553 101.266 32.4859 102.321 32.4859L104.269 32.4872L104.269 36.4968Z" fill="#66C61C"/>
<path d="M123.524 8.04848H123.039V7.77773H124.293V8.04848H123.804V9.79115H123.524V8.04848Z" fill="#042029"/>
<path d="M124.594 7.7768H124.869L125.429 9.07616L125.992 7.7768H126.267V9.79022H125.986V8.38998L125.53 9.44115H125.33L124.876 8.39529V9.78889H124.596V7.77547L124.594 7.7768Z" fill="#042029"/>
</svg>
