<svg xmlns="http://www.w3.org/2000/svg" width="472.4" height="107.553" viewBox="0 0 472.4 107.553">
  <g id="Group_1381" data-name="Group 1381" transform="translate(-160.3 -167.223)">
    <path id="Path_1716" data-name="Path 1716" d="M916.234,100.3c4.544-4.135,11.193-4.637,16.989-3.638-.668,3-1.123,6.044-1.7,9.066-2.965-.616-6.6-.321-8.518,2.339-2.448,3.333-1.568,7.669-1.744,11.524,3.617-.021,7.24.01,10.857-.021-.968,3.167-1.827,6.37-2.67,9.573-2.732.062-5.454.026-8.181.021.036,15.426-.057,30.852.047,46.279-3.405.1-6.815.005-10.22.052q.016-30.645.01-61.3C911.2,109.2,912.358,103.776,916.234,100.3Z" transform="translate(-353.818 71.002)" fill="#34383e"/>
    <path id="Path_1717" data-name="Path 1717" d="M872.1,96.87a5.469,5.469,0,0,1,7.56,4.461,5.489,5.489,0,1,1-10.929.549A5.41,5.41,0,0,1,872.1,96.87Z" transform="translate(-333.377 70.917)" fill="#34383e"/>
    <path id="Path_1718" data-name="Path 1718" d="M812.318,160.343c.031-20.6-.047-41.207.036-61.813,3.364.062,6.727.036,10.1.047-.021,7.374.01,14.743-.016,22.117,3.829,0,7.659.016,11.488-.01-.735,3.245-1.656,6.448-2.639,9.625-2.95-.041-5.894-.01-8.844-.026q.008,15.827-.005,31.649a7.533,7.533,0,0,0,2.608,6.225,12.547,12.547,0,0,0,5.247,1.961c-.885,2.618-1.941,5.18-2.82,7.8-4.719-.057-9.786-1.853-12.549-5.873C812.587,168.649,812.225,164.354,812.318,160.343Z" transform="translate(-306.153 69.888)" fill="#34383e"/>
    <path id="Path_1720" data-name="Path 1720" d="M438.376,143.612c3.871-3.032,8.885-4.078,13.708-4.192,4.911.078,10.1,1.159,13.874,4.507,3.845,3.281,5.547,8.419,5.692,13.356.083,5.666-.01,11.338.041,17.01a46.693,46.693,0,0,0-5.641.285c-3.115.336-6.262.109-9.372.528-2.919.373-5.868.088-8.782.461a47.739,47.739,0,0,1-5.956.3c.14,3.007-.543,6.329,1.128,9.04,1.5,2.556,4.652,3.5,7.452,3.519,5.17-.191,10.091-2.142,14.609-4.543,1.226,2.8,2.4,5.635,3.752,8.383-2.267,1.8-5.077,2.732-7.783,3.659a36.4,36.4,0,0,1-16.8,1.252c-4.393-.812-8.683-3.327-10.712-7.436a20.208,20.208,0,0,1-1.79-10.194q.008-10.844,0-21.7c.031-5.371,2.2-10.94,6.582-14.236m4.114,11.405c-1.082,3.664-.419,7.56-.569,11.323,6.541-.269,13.087-.564,19.618-1.045-.078-2.836.1-5.682-.093-8.513a8.063,8.063,0,0,0-5.434-6.991C451.132,147.788,444.265,149.666,442.49,155.017Z" transform="translate(-122.536 50.158)" fill="#34383e"/>
    <path id="Path_1721" data-name="Path 1721" d="M621.735,145.428a18.972,18.972,0,0,1,11.317-5.589c5.537-.864,11.576-.29,16.409,2.743,4.776,2.986,7.4,8.689,7.4,14.226.021,5.837-.016,11.674.016,17.512a47.262,47.262,0,0,0-5.609.295c-2.944.321-5.92.1-8.859.481-3.084.414-6.2.119-9.289.507a48.344,48.344,0,0,1-5.868.29c.124,2.991-.486,6.272,1.082,8.989,1.589,2.691,4.942,3.628,7.886,3.571a34.746,34.746,0,0,0,14.2-4.544c1.268,2.851,2.515,5.718,3.8,8.57a37.3,37.3,0,0,1-23.608,4.9A16.388,16.388,0,0,1,621,192.726a15.2,15.2,0,0,1-3.84-10.515q-.023-12.171-.005-24.348a18.157,18.157,0,0,1,4.58-12.435m6.184,9.315c-1.268,3.731-.5,7.752-.724,11.612,6.551-.238,13.1-.554,19.633-1.04-.264-3.809.637-7.866-.9-11.483C642.439,147.043,630.682,147.565,627.919,154.743Z" transform="translate(-211.987 50.132)" fill="#34383e"/>
    <path id="Path_1722" data-name="Path 1722" d="M724.631,142.362a27.558,27.558,0,0,1,17.279-2.1c5.113,1.03,10,4.212,12.135,9.1,1.806,3.819,1.718,8.124,1.672,12.244q0,17.442.005,34.878c-3.343-.01-6.686-.031-10.024.01-.088-12.311.026-24.632-.052-36.948-.062-3.628-1.977-7.374-5.382-8.911-4.994-2.38-10.909-1.18-15.664,1.211.031,14.878-.01,29.755.021,44.628-3.286-.005-6.572.01-9.853-.01.031-18.645-.047-37.3.041-55.94,3.027.041,6.06.01,9.087.021C724.14,141.156,724.383,141.757,724.631,142.362Z" transform="translate(-259.088 50.005)" fill="#34383e"/>
    <path id="Path_1723" data-name="Path 1723" d="M1003.543,141.666a15.487,15.487,0,0,1,5.77-2.386c1.154,2.67,2.323,5.33,3.529,7.98a8.267,8.267,0,0,0-5.672,7.923c.021,16.554-.01,33.109.016,49.658-.176,3.767-1.154,7.793-3.954,10.5-2.577,2.681-6.3,3.716-9.832,4.414-1.056-2.66-2.51-5.164-3.353-7.9,3.11-.6,6.081-2.732,6.826-5.941.818-3.788.228-7.695.45-11.535-3.85,3.157-9.134,3.581-13.9,3.208-4.9-.316-9.946-2.132-13.165-5.982-3.493-4.016-4.5-9.517-4.59-14.681-.036-12.2-.005-24.41-.016-36.617,3.322,0,6.644.026,9.972-.016q-.031,17.535-.01,35.065c.078,3.131.409,6.489,2.272,9.123a8.445,8.445,0,0,0,5.956,3.219,14.9,14.9,0,0,0,8.6-1.237c2.577-1.356,3.974-4.181,4.45-6.95.647-4.114.331-8.29.4-12.435.052-4.311-.109-8.626.1-12.932C997.55,149.386,999.563,144.465,1003.543,141.666Z" transform="translate(-380.142 50.226)" fill="#34383e"/>
    <path id="Path_1724" data-name="Path 1724" d="M518.21,141.13c3.669.16,7.338.026,11.007.078,3.793,13.16,7.855,26.242,11.742,39.375.093-.181.279-.533.373-.714,3.876-12.88,7.607-25.812,11.519-38.682,3.6.036,7.2.005,10.805.021-5.868,18.635-11.6,37.321-17.47,55.956-3.493-.036-6.986.021-10.479-.041C529.926,178.446,524,159.811,518.21,141.13Z" transform="translate(-164.247 49.333)" fill="#34383e"/>
    <path id="Path_1725" data-name="Path 1725" d="M869.1,141.26c3.39.052,6.779.031,10.169.016-.005,18.629-.041,37.259.016,55.888-3.395.062-6.789.005-10.184.036Q869.106,169.233,869.1,141.26Z" transform="translate(-333.556 49.271)" fill="#34383e"/>
    <g id="Group_1379" data-name="Group 1379" transform="translate(0 -201)">
      <path id="Path_1719" data-name="Path 1719" d="M240.517,111.19c7.835-1.956,15.773-3.974,23.861-4.28-.016,7.214.031,14.427-.016,21.641-22.686,1.8-43.67,11.762-66.062,15.162,0-7.214.021-14.427-.01-21.641C212.661,119.681,226.483,114.967,240.517,111.19Z" transform="translate(-9.88 266.845)" fill="#105efb"/>
      <path id="Path_1726" data-name="Path 1726" d="M324.1,169.145a68.223,68.223,0,0,1,20.5,1.459c-.036,7.162.026,14.324-.031,21.486-2.67-.616-5.387-.88-8.078-1.32-4.15-.14-8.3-.057-12.451-.052C324.069,183.525,323.955,176.332,324.1,169.145Z" transform="translate(-70.55 236.901)" fill="#105efb"/>
      <path id="Path_1727" data-name="Path 1727" d="M189.426,182.28c12.792-3.379,25.357-7.7,38.392-10.07.016,7.255-.036,14.505.031,21.755-19.742,3.778-38.516,11.721-58.512,14.293-8.414.994-17.1,1.164-25.367-.937.031-7.224.01-14.443.016-21.662C159.1,189.059,174.719,186.27,189.426,182.28Z" transform="translate(16.33 235.336)" fill="#105efb"/>
      <path id="Path_1728" data-name="Path 1728" d="M254.519,230.42a80.7,80.7,0,0,1,10.308-.435c.016,7.271,0,14.541.005,21.812-14.676-.347-28.984,3.586-42.961,7.628C208.463,263.233,195,267.446,181,268.3V246.534C206.243,244.889,229.421,232.945,254.519,230.42Z" transform="translate(-1.538 207.477)" fill="#105efb"/>
    </g>
  </g>
</svg>
