<svg width="153" height="24" viewBox="0 0 153 24" fill="none" xmlns="http://www.w3.org/2000/svg">
<g clip-path="url(#clip0_255_5187)">
<path fill-rule="evenodd" clip-rule="evenodd" d="M24.3481 14.0672C22.533 17.2743 20.3563 19.0776 15.6489 19.598C10.4618 20.1771 6.17492 16.8088 4.48156 14.2944C6.64105 15.0536 8.94167 15.3339 11.2218 15.1154C15.4497 14.7306 17.8624 13.0702 19.5927 10.3506C19.8546 9.94378 20.5629 8.66828 19.3234 8.23945C18.1871 7.84727 17.143 7.83627 16.3314 9.02014C15.0143 10.9517 13.4722 11.6921 10.2442 12.044C5.9425 12.5021 0.777569 9.67256 0.179913 10.2627C-0.889966 11.3182 2.58161 22.9224 15.3759 22.7795C19.9837 22.7281 23.2192 21.1668 26.2481 17.2816C26.9859 16.3396 26.7572 15.1961 25.9492 14.1222C25.4512 13.4587 24.7429 13.4111 24.3629 14.0818" fill="#00D075"/>
<path fill-rule="evenodd" clip-rule="evenodd" d="M27.7123 7.10689C29.4278 2.66462 27.7713 -0.131961 27.1368 -1.24653e-05C26.6203 0.11361 25.6611 3.03481 24.296 4.73548C19.7066 2.64629 16.8253 4.54489 16.8917 5.55283C16.9471 6.39217 20.7249 5.7874 24.2702 8.85154C28.0369 12.0953 28.1476 15.6102 29.2249 15.5956C30.0881 15.5956 31.9217 12.1759 27.7123 7.10689Z" fill="#00D075"/>
<path fill-rule="evenodd" clip-rule="evenodd" d="M39.3646 7.51374H34.7383V4.7868H47.2116V7.51374H42.589V19.8949H39.3646V7.51374Z" fill="#0B2338"/>
<path fill-rule="evenodd" clip-rule="evenodd" d="M48.6523 7.45143H51.7476V4.7868H48.6523V7.45143ZM48.6966 19.9133H51.707V8.84789H48.6966V19.9133Z" fill="#0B2338"/>
<path fill-rule="evenodd" clip-rule="evenodd" d="M64.1926 15.8925C64.1337 17.0828 63.636 18.21 62.7944 19.0592C61.9827 19.8412 60.7677 20.2321 59.1494 20.2321C58.3105 20.2464 57.477 20.097 56.6961 19.7923C56.0447 19.5394 55.4649 19.1331 55.0064 18.6084C54.5542 18.0728 54.2211 17.4483 54.0287 16.7758C53.8071 15.9986 53.699 15.1938 53.7078 14.3861C53.6962 13.5698 53.8208 12.7574 54.0767 11.9817C54.3058 11.2937 54.675 10.6599 55.1613 10.1197C55.6457 9.59842 56.2404 9.19033 56.9027 8.92485C58.3053 8.41457 59.8365 8.36956 61.267 8.79657C61.7908 8.96443 62.276 9.23348 62.6948 9.58826C63.0813 9.924 63.3897 10.3392 63.5986 10.8051C63.8204 11.2986 63.9659 11.8225 64.0303 12.3592L60.9977 12.7624C60.9532 12.2733 60.783 11.8038 60.5034 11.3989C60.3393 11.2119 60.1322 11.0669 59.8997 10.9763C59.6672 10.8857 59.4162 10.8521 59.1678 10.8784C58.7682 10.8635 58.3725 10.9627 58.0279 11.1643C57.7261 11.3575 57.4785 11.6236 57.3085 11.9377C57.1255 12.2816 57.0009 12.6531 56.9395 13.0373C56.8678 13.4673 56.832 13.9025 56.8326 14.3384C56.8317 14.7853 56.8675 15.2315 56.9395 15.6726C57.0042 16.0629 57.1286 16.4412 57.3085 16.7941C57.4736 17.1084 57.7192 17.3739 58.0205 17.5638C58.3648 17.7664 58.7607 17.8657 59.1605 17.8497C59.4155 17.866 59.6712 17.8294 59.9112 17.7423C60.1513 17.6553 60.3705 17.5196 60.555 17.3439C60.9145 16.9371 61.1206 16.4189 61.1379 15.8778L64.1926 15.8925Z" fill="#0B2338"/>
<path fill-rule="evenodd" clip-rule="evenodd" d="M66.0293 4.7868H68.977V12.7001L73.2971 8.84789H76.7834L72.6957 12.6561L77.1044 19.8949H73.8579L70.5449 14.3054L68.977 15.7019V19.8949H66.0293V4.7868Z" fill="#0B2338"/>
<path fill-rule="evenodd" clip-rule="evenodd" d="M87.7681 16.4459C87.6458 17.5451 87.1029 18.5555 86.2518 19.2682C85.4451 19.9108 84.267 20.2321 82.7175 20.2321C80.8508 20.2321 79.4489 19.7239 78.5118 18.7074C77.5747 17.6909 77.105 16.2529 77.1025 14.3934C77.0885 13.5462 77.2272 12.7033 77.512 11.9047C77.765 11.2218 78.1568 10.598 78.6631 10.0721C79.1562 9.55788 79.7569 9.1575 80.4228 8.89919C81.1524 8.63199 81.9252 8.50029 82.7028 8.51067C84.4244 8.51067 85.7181 8.99937 86.5838 9.97677C87.4508 10.9517 87.8861 12.2602 87.8861 13.9132V15.0971H80.1129C80.095 15.8463 80.3344 16.5793 80.7918 17.1753C81.0388 17.4327 81.3405 17.6321 81.6749 17.7589C82.0094 17.8857 82.3681 17.9368 82.7249 17.9083C83.9165 17.9083 84.6175 17.4135 84.8352 16.4423L87.7681 16.4459ZM84.9938 13.1472C85.0375 12.5024 84.8346 11.8649 84.4256 11.3622C84.1911 11.1348 83.9096 10.9606 83.6007 10.8518C83.2918 10.743 82.9628 10.702 82.6364 10.7318C82.2753 10.7237 81.9163 10.7886 81.5812 10.9224C81.2939 11.0411 81.034 11.217 80.8176 11.4392C80.6091 11.6605 80.4451 11.9192 80.3343 12.2016C80.2182 12.5028 80.1534 12.8212 80.1425 13.1435L84.9938 13.1472Z" fill="#0B2338"/>
<path fill-rule="evenodd" clip-rule="evenodd" d="M90.5447 11.1533H88.7812V8.84787H90.5447V5.91568H93.5551V8.84787H96.1376V11.1533H93.5551V16.2553C93.5551 16.8308 93.6769 17.2229 93.924 17.4282C94.1906 17.6417 94.5264 17.7512 94.8685 17.7361C95.0731 17.736 95.2775 17.7249 95.4809 17.7031C95.6882 17.6828 95.8932 17.6435 96.0933 17.5858L96.525 19.785C96.1291 19.9086 95.7229 19.9969 95.3112 20.0488C94.9357 20.0978 94.5573 20.1222 94.1786 20.1222C92.9464 20.1222 92.0352 19.8326 91.4375 19.2572C90.8398 18.6817 90.5447 17.7031 90.5447 16.325V11.1533Z" fill="#0B2338"/>
<path fill-rule="evenodd" clip-rule="evenodd" d="M101.511 14.9615C101.585 15.8925 101.88 16.5705 102.426 16.9957C102.972 17.4209 103.758 17.6298 104.802 17.6298C105.23 17.6382 105.658 17.5851 106.071 17.4722C106.376 17.3848 106.661 17.2405 106.912 17.047C107.116 16.8816 107.275 16.6671 107.373 16.4239C107.467 16.1731 107.515 15.9073 107.513 15.6396C107.504 15.23 107.342 14.8383 107.059 14.54C106.762 14.1954 106.21 13.9511 105.403 13.8069L103.403 13.4404C102.693 13.3215 101.995 13.1375 101.319 12.8906C100.764 12.6907 100.251 12.3926 99.8027 12.011C99.3899 11.6414 99.0702 11.1806 98.8694 10.6658C98.642 10.0717 98.533 9.43932 98.5484 8.80388C98.5357 8.14364 98.6865 7.49042 98.9874 6.90162C99.2814 6.35317 99.7025 5.88205 100.216 5.52716C100.788 5.13909 101.425 4.85605 102.097 4.69148C102.885 4.49384 103.694 4.39776 104.507 4.40559C105.451 4.37496 106.395 4.49878 107.299 4.77212C107.965 4.97912 108.581 5.32107 109.107 5.77639C109.554 6.17514 109.904 6.67039 110.129 7.22416C110.35 7.77455 110.499 8.35113 110.572 8.9395L107.539 9.30602C107.449 8.62701 107.123 8.0007 106.617 7.53571C106.163 7.16918 105.48 6.98592 104.562 6.98592C104.11 6.9771 103.659 7.02264 103.219 7.12154C102.917 7.19458 102.63 7.31856 102.37 7.48806C102.172 7.61274 102.014 7.79236 101.917 8.00486C101.832 8.19809 101.788 8.40634 101.788 8.61695C101.769 8.8526 101.804 9.08932 101.888 9.31036C101.972 9.53141 102.104 9.73138 102.275 9.89612C102.76 10.2472 103.325 10.4727 103.92 10.5522L106.03 10.9554C107.69 11.2779 108.909 11.8033 109.686 12.5314C110.463 13.2596 110.85 14.3066 110.845 15.6725C110.854 16.3025 110.729 16.9274 110.476 17.5052C110.222 18.0703 109.844 18.5715 109.369 18.9713C108.825 19.4135 108.198 19.7436 107.524 19.9425C106.674 20.1968 105.789 20.3204 104.901 20.3091C102.806 20.3091 101.207 19.8692 100.105 18.9896C99.0034 18.1099 98.4045 16.7794 98.3086 14.9981L101.511 14.9615Z" fill="#0B2338"/>
<path fill-rule="evenodd" clip-rule="evenodd" d="M112.57 8.84788H115.492V10.314C115.879 9.74326 116.406 9.27929 117.022 8.96526C117.639 8.65123 118.326 8.49737 119.018 8.51801C120.583 8.51801 121.752 9.03969 122.527 10.0831C123.302 11.1264 123.688 12.5583 123.685 14.3787C123.695 15.1873 123.583 15.9927 123.353 16.7685C123.156 17.4422 122.827 18.071 122.387 18.6194C121.97 19.1211 121.444 19.5222 120.848 19.7923C120.206 20.0918 119.503 20.2422 118.793 20.2321C118.224 20.2301 117.66 20.1296 117.126 19.9352C116.508 19.6885 115.97 19.2792 115.569 18.7514V24H112.559L112.57 8.84788ZM115.558 14.4557C115.542 15.0353 115.603 15.6145 115.739 16.1784C115.84 16.5737 116.045 16.9354 116.333 17.2266C116.578 17.4604 116.877 17.6314 117.203 17.7251C117.495 17.8026 117.795 17.842 118.096 17.8424C118.421 17.8422 118.742 17.7774 119.041 17.6518C119.349 17.5187 119.62 17.3108 119.826 17.047C120.07 16.7288 120.249 16.3666 120.354 15.9804C120.492 15.463 120.557 14.9287 120.546 14.3934C120.558 13.8442 120.497 13.2957 120.365 12.7624C120.267 12.3769 120.095 12.0136 119.86 11.6921C119.662 11.4321 119.398 11.2286 119.096 11.102C118.799 10.981 118.48 10.92 118.159 10.9224C117.831 10.915 117.503 10.9646 117.192 11.069C116.902 11.179 116.633 11.3363 116.395 11.5345C116.101 11.8145 115.883 12.1637 115.761 12.5498C115.611 13.059 115.543 13.5883 115.558 14.1185V14.4557Z" fill="#0B2338"/>
<path fill-rule="evenodd" clip-rule="evenodd" d="M125.645 7.45143H128.755V4.7868H125.659L125.645 7.45143ZM125.685 19.9133H128.699V8.84789H125.685V19.9133Z" fill="#0B2338"/>
<path fill-rule="evenodd" clip-rule="evenodd" d="M141.17 15.8925C141.116 17.0817 140.622 18.2093 139.783 19.0592C138.971 19.8412 137.755 20.2321 136.134 20.2321C135.296 20.2464 134.464 20.0969 133.684 19.7923C133.033 19.5394 132.453 19.1331 131.995 18.6084C131.543 18.0728 131.209 17.4483 131.017 16.7758C130.795 15.9986 130.687 15.1938 130.696 14.3861C130.684 13.5698 130.809 12.7574 131.065 11.9817C131.294 11.2937 131.663 10.6599 132.15 10.1197C132.642 9.59794 133.246 9.19219 133.917 8.93218C135.311 8.42516 136.832 8.3776 138.255 8.79657C138.779 8.96362 139.265 9.23275 139.683 9.58826C140.07 9.924 140.378 10.3392 140.587 10.8051C140.807 11.2993 140.952 11.8229 141.019 12.3592L137.975 12.7624C137.93 12.2733 137.76 11.8038 137.481 11.3989C137.316 11.2119 137.109 11.0669 136.877 10.9763C136.644 10.8857 136.393 10.8521 136.145 10.8784C135.745 10.8635 135.35 10.9627 135.005 11.1643C134.697 11.3551 134.442 11.6214 134.267 11.9377C134.083 12.2809 133.958 12.6527 133.898 13.0372C133.827 13.4673 133.791 13.9025 133.791 14.3384C133.79 14.7853 133.826 15.2315 133.898 15.6726C133.961 16.0633 134.086 16.4418 134.267 16.7941C134.432 17.1084 134.678 17.3739 134.979 17.5638C135.322 17.7659 135.717 17.8652 136.116 17.8497C136.371 17.8665 136.628 17.8302 136.868 17.7431C137.109 17.656 137.329 17.5201 137.514 17.3439C137.873 16.9371 138.079 16.4189 138.097 15.8778L141.17 15.8925Z" fill="#0B2338"/>
<path fill-rule="evenodd" clip-rule="evenodd" d="M152.869 16.4459C152.744 17.5441 152.202 18.5533 151.353 19.2682C150.542 19.9108 149.362 20.2321 147.815 20.2321C145.953 20.2321 144.551 19.7239 143.609 18.7074C142.667 17.6909 142.198 16.2529 142.2 14.3934C142.186 13.5462 142.325 12.7034 142.61 11.9047C142.863 11.2218 143.254 10.598 143.761 10.0721C144.26 9.56273 144.866 9.16858 145.535 8.91752C146.265 8.65096 147.038 8.51929 147.815 8.529C149.537 8.529 150.831 9.0177 151.696 9.9951C152.563 10.9701 152.999 12.2785 152.999 13.9316V15.1154H145.211C145.194 15.8685 145.438 16.6044 145.9 17.201C146.148 17.4584 146.451 17.6578 146.786 17.7846C147.121 17.9114 147.48 17.9625 147.837 17.934C149.025 17.934 149.73 17.4392 149.944 16.4679L152.869 16.4459ZM150.095 13.1472C150.138 12.5019 149.934 11.8644 149.523 11.3622C149.291 11.1361 149.012 10.9624 148.706 10.853C148.399 10.7436 148.073 10.701 147.749 10.7281C147.389 10.72 147.031 10.7849 146.697 10.9187C146.409 11.0357 146.149 11.2118 145.934 11.4355C145.725 11.6568 145.561 11.9156 145.45 12.1979C145.331 12.4985 145.265 12.8171 145.255 13.1399L150.095 13.1472Z" fill="#0B2338"/>
</g>
<defs>
<clipPath id="clip0_255_5187">
<rect width="153" height="24" fill="white"/>
</clipPath>
</defs>
</svg>
