<?xml version="1.0" encoding="utf-8"?>
<!-- Generator: Adobe Illustrator 26.0.1, SVG Export Plug-In . SVG Version: 6.00 Build 0)  -->
<svg version="1.1" id="Layer_1" xmlns="http://www.w3.org/2000/svg" xmlns:xlink="http://www.w3.org/1999/xlink" x="0px" y="0px"
	 viewBox="0 0 190 40" style="enable-background:new 0 0 190 40;" xml:space="preserve">
<style type="text/css">
	.st0{fill:#D88A23;}
</style>
<g>
	<path class="st0" d="M178.5,7.5c-6.3,0-11.5,5.2-11.5,11.6V40h3.9V27.9c2.1,1.9,4.8,2.9,7.6,2.9c6.3,0,11.5-5.2,11.5-11.6
		C190,12.7,184.9,7.5,178.5,7.5L178.5,7.5z M178.5,26.9c-4.2,0-7.6-3.5-7.6-7.7c0-4.3,3.4-7.7,7.6-7.7s7.6,3.5,7.6,7.7
		C186.1,23.4,182.7,26.9,178.5,26.9L178.5,26.9z M153,7.5c-6.3,0-11.5,5.2-11.5,11.6c0,6.4,5.1,11.6,11.5,11.6
		c2.9,0,5.6-1.1,7.6-2.9v2.9h3.9V19.2C164.5,12.7,159.3,7.5,153,7.5C153,7.5,153,7.5,153,7.5z M153,26.9c-4.2,0-7.6-3.5-7.6-7.7
		c0-4.3,3.4-7.7,7.6-7.7c4.2,0,7.6,3.5,7.6,7.7C160.6,23.4,157.2,26.9,153,26.9L153,26.9z M139.9,16.7c-1.1-5.3-5.7-9.2-11.2-9.2
		c-6.3,0-11.5,5.2-11.5,11.7c0,0.9,0.1,1.8,0.3,2.6l-11.3,4.7V0h-3.9v27.9c0,1,0.5,1.9,1.3,2.4c0.8,0.5,1.8,0.7,2.7,0.3l12.6-5.2
		c2,3.3,5.6,5.4,9.7,5.4c5.3,0,9.7-3.6,11.1-8.5h-4.1c-1.2,2.7-3.9,4.6-7,4.6c-2.5,0-4.6-1.2-6-3L139.9,16.7L139.9,16.7L139.9,16.7z
		 M121.1,20.2c-0.1-0.4-0.1-0.7-0.1-1.1c0-4.3,3.4-7.7,7.6-7.7c2.5,0,4.7,1.2,6.1,3.2L121.1,20.2L121.1,20.2L121.1,20.2z M37,10.2
		c2.5,0,4.8,1.1,6.4,2.8l1.7-2c-2.1-2.1-5-3.4-8.1-3.4c-6.3,0-11.5,5.2-11.5,11.6c0,6.4,5.1,11.6,11.5,11.6c3.1,0,6-1.3,8.1-3.4
		l-1.8-1.9c-1.7,1.7-3.9,2.6-6.3,2.6c-4.9,0-8.9-4-8.9-9S32.1,10.2,37,10.2z M100.1,9.9V7.5h-6.9V1.9h-2.6v5.5h-5v2.4h5v15.3
		c0,1.8,0.5,3.2,1.5,4.1c1.1,0.9,2.6,1.4,4.7,1.4c0.6,0,1.4-0.1,2.1-0.2c0.4,0,0.7-0.1,1-0.2V28c-0.3,0.1-0.5,0.1-0.7,0.2
		c-0.6,0.1-1.2,0.2-1.9,0.2c-1.4,0-2.5-0.3-3.2-1c-0.7-0.7-1-1.7-1-3.2V9.9C93.2,9.9,100.1,9.9,100.1,9.9z M23.1,7.5h-2.6v23.3h2.6
		V7.5z"/>
	<path class="st0" d="M0,2.4h10.3v28.4h2.6V2.4h10.3V0H0V2.4z M64.1,7.5H61L49.7,17.8V0h-2.6v30.8h2.6V19.9l11.1,10.9h3.7L52.1,18.6
		L64.1,7.5z"/>
	<path class="st0" d="M85.4,16.1L85.4,16.1c-1.4-4.9-5.8-8.5-11.1-8.5c-6.3,0-11.5,5.2-11.5,11.6c0,6.4,5.1,11.6,11.5,11.6
		c4.9,0,9.1-3.1,10.7-7.5h-2.9c-1.5,2.9-4.4,4.9-7.9,4.9c-3.2,0-6-1.8-7.6-4.4l0,0L85.4,16.1L85.4,16.1z M65.7,21.4L65.7,21.4
		c-0.2-0.7-0.3-1.5-0.3-2.2c0-5,4-9,8.9-9c3.3,0,6.1,1.8,7.7,4.5L65.7,21.4L65.7,21.4L65.7,21.4z"/>
</g>
</svg>
